# File created by Blade
# Date/Time:  Tue Jan 27 19:18:41 2015
# Frame Rate: 120.000 fps
#------------------------------------------------------
:FULLY-SPECIFIED
:DEGREES
3763
root 1.075579 32.190464 0.456050 0.401759 -33.046932 -3.940037
Spine 4.187267 -16.040459 -9.252910
Head 19.079675 16.973749 16.422250
LeftShoulder -15.286373 4.126519 31.330479
LeftArm -10.170890 32.191712 -106.885318
LeftForeArm 9.254511 -0.000000 19.506970
LeftHand 10.213818 -0.000000 -2.449243
LeftHandThumb1 -26.253704 0.000000 33.147579
RightShoulder -30.462544 -23.553517 -40.204166
RightArm 2.108557 7.277376 26.445587
RightForeArm 19.618535 -0.000000 97.551268
RightHand 27.607132 -0.000000 -9.951988
RightHandThumb1 -24.326973 -0.000000 -32.862282
LeftUpLeg 17.821973 24.131826 9.239503
LeftLeg -2.470874 -0.000000 0.000000
LeftFoot -21.038345 18.808015 -29.325373
LeftToeBase 15.418878 -0.000000 -0.000000
RightUpLeg 0.735833 14.598358 10.302155
RightLeg 8.933786 -0.000000 -0.000000
RightFoot -7.934530 -5.485956 8.476082
RightToeBase 13.214640 -0.000000 -0.000000
3764
root 1.082672 32.190647 0.448216 0.432379 -33.212087 -3.971749
Spine 4.178501 -15.967925 -9.267555
Head 19.073451 16.912473 16.454112
LeftShoulder -15.257698 4.099986 31.354935
LeftArm -10.192949 32.176518 -106.905119
LeftForeArm 9.119354 -0.000000 19.530712
LeftHand 10.219687 -0.000000 -2.329074
LeftHandThumb1 -26.253704 0.000000 33.147579
RightShoulder -30.396235 -23.558919 -40.207244
RightArm 3.210071 4.996581 25.848312
RightForeArm 19.603345 0.000000 97.091529
RightHand 27.484603 0.000000 -9.781617
RightHandThumb1 -24.326973 -0.000000 -32.862282
LeftUpLeg 17.839270 24.171602 9.232272
LeftLeg -2.500346 -0.000000 0.000000
LeftFoot -21.077878 18.929585 -29.350759
LeftToeBase 15.375741 -0.000000 -0.000000
RightUpLeg 0.700508 14.652829 10.305671
RightLeg 8.937883 -0.000000 -0.000000
RightFoot -7.872807 -5.379371 8.478059
RightToeBase 13.148304 -0.000000 -0.000000
3765
root 1.090295 32.190708 0.439975 0.469000 -33.369527 -4.004313
Spine 4.166152 -15.886822 -9.272867
Head 19.045722 16.846617 16.463569
LeftShoulder -15.244907 4.086090 31.361037
LeftArm -10.204387 32.259748 -106.893562
LeftForeArm 9.030687 -0.000000 19.607296
LeftHand 10.126061 -0.000000 -2.252685
LeftHandThumb1 -26.253704 0.000000 33.147579
RightShoulder -30.248723 -23.540883 -40.232172
RightArm 4.178789 2.790392 25.239375
RightForeArm 19.641162 -0.000000 96.723440
RightHand 27.256305 -0.000000 -9.900901
RightHandThumb1 -24.326973 -0.000000 -32.862282
LeftUpLeg 17.850364 24.227985 9.224999
LeftLeg -2.524143 -0.000000 0.000000
LeftFoot -21.134836 19.009544 -29.376660
LeftToeBase 15.422216 -0.000000 -0.000000
RightUpLeg 0.657229 14.694133 10.308925
RightLeg 8.942039 -0.000000 -0.000000
RightFoot -7.813053 -5.278737 8.471984
RightToeBase 13.159422 -0.000000 -0.000000
3766
root 1.097130 32.191489 0.432542 0.499928 -33.508568 -4.035711
Spine 4.157483 -15.783106 -9.268366
Head 19.014902 16.754704 16.446072
LeftShoulder -15.203748 4.088017 31.354530
LeftArm -10.145286 32.337752 -106.838824
LeftForeArm 9.038337 -0.000000 19.645359
LeftHand 10.039303 -0.000000 -2.396644
LeftHandThumb1 -26.253704 0.000000 33.147579
RightShoulder -30.142854 -23.591871 -40.238749
RightArm 5.148223 0.685575 24.684140
RightForeArm 19.651463 -0.000000 96.343458
RightHand 27.225615 -0.000000 -9.701681
RightHandThumb1 -24.326973 -0.000000 -32.862282
LeftUpLeg 17.855529 24.233017 9.207636
LeftLeg -2.539791 -0.000000 0.000000
LeftFoot -21.196891 19.107490 -29.418336
LeftToeBase 15.401755 -0.000000 -0.000000
RightUpLeg 0.626605 14.736405 10.313272
RightLeg 8.935110 -0.000000 -0.000000
RightFoot -7.743508 -5.190502 8.425248
RightToeBase 13.158931 -0.000000 -0.000000
3767
root 1.104337 32.192663 0.426169 0.556351 -33.611991 -4.063354
Spine 4.121031 -15.704597 -9.248128
Head 18.966241 16.693659 16.420170
LeftShoulder -15.195985 4.072838 31.337604
LeftArm -10.099525 32.496438 -106.802483
LeftForeArm 8.927821 0.000000 19.665884
LeftHand 10.035759 -0.000000 -2.376483
LeftHandThumb1 -26.253704 0.000000 33.147579
RightShoulder -30.036538 -23.671003 -40.242894
RightArm 6.074283 -1.314855 24.124077
RightForeArm 19.781874 -0.000000 96.052601
RightHand 27.254845 -0.000000 -9.191014
RightHandThumb1 -24.326973 -0.000000 -32.862282
LeftUpLeg 17.820473 24.220521 9.173083
LeftLeg -2.548668 -0.000000 0.000000
LeftFoot -21.251783 19.224434 -29.420778
LeftToeBase 15.312345 -0.000000 -0.000000
RightUpLeg 0.567249 14.761756 10.306926
RightLeg 8.930544 -0.000000 -0.000000
RightFoot -7.684898 -5.114429 8.448432
RightToeBase 13.172809 -0.000000 -0.000000
3768
root 1.112297 32.194295 0.419768 0.581498 -33.706684 -4.084487
Spine 4.133644 -15.605347 -9.237111
Head 18.902008 16.681165 16.397262
LeftShoulder -15.181800 4.062741 31.319111
LeftArm -10.007064 32.590168 -106.747229
LeftForeArm 8.866339 -0.000000 19.660539
LeftHand 10.135808 -0.000000 -2.279333
LeftHandThumb1 -26.253704 0.000000 33.147579
RightShoulder -29.952176 -23.736201 -40.198150
RightArm 6.913184 -3.144007 23.609436
RightForeArm 19.873159 0.000000 95.855165
RightHand 27.380296 -0.000000 -8.940113
RightHandThumb1 -24.326973 -0.000000 -32.862282
LeftUpLeg 17.809775 24.191646 9.141730
LeftLeg -2.573243 -0.000000 0.000000
LeftFoot -21.268360 19.362613 -29.402281
LeftToeBase 15.277236 -0.000000 -0.000000
RightUpLeg 0.531405 14.746435 10.297511
RightLeg 8.931555 -0.000000 -0.000000
RightFoot -7.622236 -5.003530 8.441677
RightToeBase 13.146312 -0.000000 -0.000000
3769
root 1.119547 32.196571 0.413595 0.612827 -33.772356 -4.108902
Spine 4.148178 -15.497136 -9.225585
Head 18.828438 16.663276 16.389859
LeftShoulder -15.155734 4.035420 31.318010
LeftArm -9.939972 32.665936 -106.696426
LeftForeArm 8.885587 -0.000000 19.707108
LeftHand 10.157301 0.000000 -2.197162
LeftHandThumb1 -26.253704 0.000000 33.147579
RightShoulder -29.910700 -23.826866 -40.143709
RightArm 7.738296 -4.868005 23.144140
RightForeArm 19.881981 0.000000 95.726659
RightHand 27.382334 -0.000000 -9.319952
RightHandThumb1 -24.326973 -0.000000 -32.862282
LeftUpLeg 17.781773 24.159625 9.116465
LeftLeg -2.573056 -0.000000 0.000000
LeftFoot -21.332870 19.446302 -29.432455
LeftToeBase 15.396700 -0.000000 -0.000000
RightUpLeg 0.502425 14.767161 10.295453
RightLeg 8.914252 -0.000000 -0.000000
RightFoot -7.559776 -4.952315 8.455242
RightToeBase 13.176565 -0.000000 -0.000000
3770
root 1.127813 32.198279 0.407868 0.603314 -33.837837 -4.122676
Spine 4.216000 -15.377122 -9.227185
Head 18.699319 16.625453 16.357059
LeftShoulder -15.122384 4.026175 31.306784
LeftArm -9.851034 32.691415 -106.613980
LeftForeArm 8.872928 -0.000000 19.812174
LeftHand 10.176567 -0.000000 -2.214895
LeftHandThumb1 -26.253704 0.000000 33.147579
RightShoulder -29.875322 -23.874854 -40.114907
RightArm 8.501918 -6.399205 22.788081
RightForeArm 20.092198 -0.000000 95.633956
RightHand 27.436840 -0.000000 -8.796986
RightHandThumb1 -24.326973 -0.000000 -32.862282
LeftUpLeg 17.791954 24.148878 9.101462
LeftLeg -2.565359 -0.000000 0.000000
LeftFoot -21.312329 19.532576 -29.350160
LeftToeBase 15.171460 -0.000000 -0.000000
RightUpLeg 0.497884 14.772208 10.290609
RightLeg 8.917122 -0.000000 -0.000000
RightFoot -7.519877 -4.878148 8.484557
RightToeBase 13.272085 -0.000000 -0.000000
3771
root 1.134747 32.200894 0.402714 0.619841 -33.856167 -4.135993
Spine 4.250465 -15.308646 -9.230709
Head 18.596864 16.558520 16.344890
LeftShoulder -15.099802 4.054695 31.316722
LeftArm -9.748819 32.618979 -106.534206
LeftForeArm 9.024359 -0.000000 19.938115
LeftHand 9.991402 0.000000 -2.270730
LeftHandThumb1 -26.253704 0.000000 33.147579
RightShoulder -29.823599 -23.865882 -40.052510
RightArm 9.191334 -7.760896 22.463459
RightForeArm 20.094534 -0.000000 95.588867
RightHand 27.679026 0.000000 -8.579006
RightHandThumb1 -24.326973 -0.000000 -32.862282
LeftUpLeg 17.758857 24.132737 9.088347
LeftLeg -2.558959 -0.000000 0.000000
LeftFoot -21.379558 19.548376 -29.463382
LeftToeBase 15.320934 -0.000000 -0.000000
RightUpLeg 0.474496 14.746376 10.282540
RightLeg 8.907077 -0.000000 -0.000000
RightFoot -7.467970 -4.818331 8.477085
RightToeBase 13.296698 -0.000000 -0.000000
3772
root 1.143124 32.203506 0.397580 0.649962 -33.856651 -4.142920
Spine 4.271249 -15.257689 -9.222237
Head 18.508395 16.553504 16.326113
LeftShoulder -15.064721 4.060441 31.324583
LeftArm -9.693400 32.503814 -106.474258
LeftForeArm 9.114828 -0.000000 20.092731
LeftHand 9.845445 -0.000000 -2.284892
LeftHandThumb1 -26.253704 0.000000 33.147579
RightShoulder -29.781110 -23.860212 -39.996603
RightArm 9.837664 -8.995414 22.223900
RightForeArm 20.006864 -0.000000 95.573923
RightHand 28.239564 -0.000000 -8.872535
RightHandThumb1 -24.326973 -0.000000 -32.862282
LeftUpLeg 17.708970 24.116664 9.059486
LeftLeg -2.557189 -0.000000 0.000000
LeftFoot -21.370783 19.590755 -29.419851
LeftToeBase 15.294978 -0.000000 -0.000000
RightUpLeg 0.436681 14.755960 10.266514
RightLeg 8.889883 -0.000000 -0.000000
RightFoot -7.424700 -4.816268 8.504551
RightToeBase 13.347120 -0.000000 -0.000000
3773
root 1.149994 32.206007 0.394144 0.669634 -33.823658 -4.150427
Spine 4.302652 -15.219550 -9.210822
Head 18.441618 16.524131 16.301345
LeftShoulder -14.999702 4.007844 31.336371
LeftArm -9.712312 32.346579 -106.434157
LeftForeArm 9.325120 -0.000000 20.271733
LeftHand 9.859894 0.000000 -2.446920
LeftHandThumb1 -26.253704 0.000000 33.147579
RightShoulder -29.744913 -23.911696 -39.919167
RightArm 10.399585 -10.059310 22.080493
RightForeArm 19.687028 0.000000 95.615089
RightHand 28.299900 -0.000000 -8.919355
RightHandThumb1 -24.326973 -0.000000 -32.862282
LeftUpLeg 17.668702 24.115891 9.050552
LeftLeg -2.554131 -0.000000 0.000000
LeftFoot -21.352876 19.580593 -29.387895
LeftToeBase 15.311989 -0.000000 -0.000000
RightUpLeg 0.420065 14.731593 10.254776
RightLeg 8.859873 -0.000000 -0.000000
RightFoot -7.391738 -4.801458 8.528161
RightToeBase 13.394791 -0.000000 -0.000000
3774
root 1.158518 32.209115 0.390276 0.697627 -33.771135 -4.144485
Spine 4.316432 -15.196724 -9.200803
Head 18.387596 16.464893 16.275472
LeftShoulder -14.954796 3.981092 31.339649
LeftArm -9.702770 32.291158 -106.399019
LeftForeArm 9.350722 -0.000000 20.406111
LeftHand 9.894544 0.000000 -2.321998
LeftHandThumb1 -26.253704 0.000000 33.147579
RightShoulder -29.652646 -23.913133 -39.908135
RightArm 10.805967 -11.070706 22.091176
RightForeArm 19.363576 -0.000000 95.716244
RightHand 28.162727 0.000000 -9.147077
RightHandThumb1 -24.326973 -0.000000 -32.862282
LeftUpLeg 17.601080 24.107057 9.017459
LeftLeg -2.549112 -0.000000 0.000000
LeftFoot -21.307302 19.587704 -29.313831
LeftToeBase 15.254230 -0.000000 -0.000000
RightUpLeg 0.384812 14.702570 10.226119
RightLeg 8.831721 -0.000000 -0.000000
RightFoot -7.360142 -4.796738 8.563171
RightToeBase 13.446274 -0.000000 -0.000000
